<svg enable-background="new 0 0 511.801 511.801" height="512" viewBox="0 0 511.801 511.801" width="512" xmlns="http://www.w3.org/2000/svg">
  <path d="m184.671 393.943h142.459c6.13 0 11.584-3.896 13.572-9.694l10.462-30.515c1.499-4.374.791-9.231-1.897-12.993-2.687-3.762-7.052-6.008-11.675-6.008h-163.383c-4.623 0-8.988 2.246-11.675 6.008-2.688 3.762-3.396 8.619-1.897 12.993l10.462 30.515c1.987 5.798 7.442 9.694 13.572 9.694zm152.034-44.229-10.028 29.247h-141.553l-10.028-29.247z" />
  <path d="m56.162 304.431c0 21.565 17.544 39.109 39.11 39.109s39.11-17.544 39.11-39.109-17.544-39.11-39.11-39.11-39.11 17.544-39.11 39.11zm63.238 0c0 13.304-10.824 24.128-24.128 24.128s-24.128-10.824-24.128-24.128c0-13.305 10.824-24.128 24.128-24.128s24.128 10.823 24.128 24.128z" />
  <path d="m455.639 304.431c0-21.565-17.544-39.11-39.11-39.11s-39.11 17.544-39.11 39.11c0 21.565 17.544 39.109 39.11 39.109s39.11-17.544 39.11-39.109zm-63.238 0c0-13.305 10.824-24.128 24.128-24.128s24.128 10.823 24.128 24.128c0 13.304-10.824 24.128-24.128 24.128s-24.128-10.824-24.128-24.128z" />
  <path d="m491.954 239.556h.238c10.758 0 19.51-8.752 19.51-19.51v-16.718c0-10.758-8.752-19.51-19.51-19.51h-46.95l-6.353-12.45c-1.88-3.686-6.394-5.146-10.077-3.268-3.685 1.881-5.148 6.392-3.268 10.077l23.675 46.397h-224.06c-3.726-32.203-31.152-57.292-64.343-57.292-33.186 0-60.608 25.089-64.332 57.292h-33.902l41.291-80.92c5.881-11.526 17.573-18.686 30.512-18.686h243.03c12.94 0 24.631 7.16 30.512 18.686l1.931 3.785c1.88 3.686 6.393 5.149 10.077 3.268 3.685-1.88 5.148-6.392 3.268-10.077l-1.931-3.785c-8.453-16.567-25.258-26.859-43.857-26.859h-35.217l-18.925-39.638c-3.655-7.656-11.499-12.603-19.983-12.603h-96.779c-8.484 0-16.328 4.947-19.983 12.603l-18.925 39.638h-33.217c-18.599 0-35.404 10.292-43.857 26.859l-23.969 46.973h-46.95c-10.758 0-19.51 8.752-19.51 19.51v16.718c0 10.758 8.752 19.51 19.51 19.51h.238c-12.357 10.074-19.848 25.327-19.848 41.743v146.378c0 14.545 11.833 26.378 26.378 26.378h40.916c14.545 0 26.378-11.833 26.378-26.378v-2.403c2.144.382 4.328.59 6.531.59h33.847c4.137 0 7.491-3.354 7.491-7.491s-3.354-7.491-7.491-7.491h-33.847c-6.242 0-12.253-2.627-16.493-7.207l-60.483-65.321c-5.317-5.742-8.246-13.215-8.246-21.041v-36.014c0-15.343 9.06-29.283 23.08-35.515l14.013-6.228h407.653l14.013 6.228c14.02 6.232 23.08 20.172 23.08 35.515v36.014c0 7.826-2.929 15.299-8.246 21.041l-60.483 65.322c-4.24 4.579-10.252 7.206-16.493 7.206h-242.757c-4.137 0-7.491 3.354-7.491 7.491s3.354 7.491 7.491 7.491h242.756c2.203 0 4.386-.208 6.531-.59v2.403c0 14.545 11.833 26.378 26.378 26.378h40.916c14.545 0 26.378-11.833 26.378-26.378v-146.378c.001-16.416-7.49-31.669-19.846-41.743zm-291.907-162.752c1.183-2.477 3.72-4.077 6.464-4.077h96.779c2.744 0 5.282 1.6 6.464 4.076l15.843 33.183h-141.393zm-127.33 337.05c1.811 1.956 3.819 3.695 5.975 5.205v8.619c0 6.284-5.112 11.397-11.397 11.397h-40.917c-6.284 0-11.397-5.112-11.397-11.397v-76.178zm-26.954-189.279h-26.154c-2.497 0-4.528-2.032-4.528-4.529v-16.718c0-2.497 2.031-4.528 4.528-4.528h39.306zm95.295-.001c3.032-7.974 10.734-13.666 19.759-13.666 9.03 0 16.735 5.692 19.769 13.666zm55.123-.004c-3.459-16.343-18.001-28.644-35.364-28.644-17.358 0-31.896 12.301-35.354 28.644h-13.881c3.624-23.917 24.322-42.306 49.235-42.306 24.918 0 45.621 18.389 49.245 42.306zm269.857.005-13.152-25.775h39.306c2.497 0 4.528 2.031 4.528 4.528v16.718c0 2.497-2.031 4.529-4.528 4.529zm30.781 203.102c0 6.284-5.112 11.397-11.397 11.397h-40.916c-6.284 0-11.397-5.112-11.397-11.397v-8.619c2.156-1.51 4.163-3.248 5.974-5.204l57.736-62.354z" />
  <path d="m175.88 318.856c-4.142 0-7.5-3.358-7.5-7.5v-21.207c0-4.142 3.358-7.5 7.5-7.5s7.5 3.358 7.5 7.5v21.207c0 4.142-3.358 7.5-7.5 7.5z" />
  <path d="m209.617 318.856c-4.142 0-7.5-3.358-7.5-7.5v-21.207c0-4.142 3.358-7.5 7.5-7.5s7.5 3.358 7.5 7.5v21.207c0 4.142-3.358 7.5-7.5 7.5z" />
  <path d="m243.354 318.856c-4.142 0-7.5-3.358-7.5-7.5v-21.207c0-4.142 3.358-7.5 7.5-7.5s7.5 3.358 7.5 7.5v21.207c0 4.142-3.358 7.5-7.5 7.5z" />
  <path d="m277.09 318.856c-4.142 0-7.5-3.358-7.5-7.5v-21.207c0-4.142 3.358-7.5 7.5-7.5s7.5 3.358 7.5 7.5v21.207c0 4.142-3.357 7.5-7.5 7.5z" />
  <path d="m310.827 318.856c-4.142 0-7.5-3.358-7.5-7.5v-21.207c0-4.142 3.358-7.5 7.5-7.5s7.5 3.358 7.5 7.5v21.207c0 4.142-3.358 7.5-7.5 7.5z" />
  <path d="m344.564 318.856c-4.142 0-7.5-3.358-7.5-7.5v-21.207c0-4.142 3.358-7.5 7.5-7.5s7.5 3.358 7.5 7.5v21.207c0 4.142-3.358 7.5-7.5 7.5z" />
</svg>
