<svg width="16" height="17" viewBox="0 0 16 17" fill="none" xmlns="http://www.w3.org/2000/svg">
<path d="M4.66797 7.83301H6.0013V9.16634H4.66797V7.83301ZM4.66797 10.4997H6.0013V11.833H4.66797V10.4997ZM7.33464 7.83301H8.66797V9.16634H7.33464V7.83301ZM7.33464 10.4997H8.66797V11.833H7.33464V10.4997ZM10.0013 7.83301H11.3346V9.16634H10.0013V7.83301ZM10.0013 10.4997H11.3346V11.833H10.0013V10.4997Z" fill="#111111"/>
<path d="M3.33333 15.1663H12.6667C13.402 15.1663 14 14.5683 14 13.833V4.49967C14 3.76434 13.402 3.16634 12.6667 3.16634H11.3333V1.83301H10V3.16634H6V1.83301H4.66667V3.16634H3.33333C2.598 3.16634 2 3.76434 2 4.49967V13.833C2 14.5683 2.598 15.1663 3.33333 15.1663ZM12.6667 5.83301L12.6673 13.833H3.33333V5.83301H12.6667Z" fill="#111111"/>
</svg>
