<svg width="16" height="17" viewBox="0 0 16 17" fill="none" xmlns="http://www.w3.org/2000/svg">
<path d="M8.0013 1.83301C6.1633 1.83301 4.66797 3.32834 4.66797 5.16634V6.49967H4.0013C3.26597 6.49967 2.66797 7.09767 2.66797 7.83301V13.833C2.66797 14.5683 3.26597 15.1663 4.0013 15.1663H12.0013C12.7366 15.1663 13.3346 14.5683 13.3346 13.833V7.83301C13.3346 7.09767 12.7366 6.49967 12.0013 6.49967H11.3346V5.16634C11.3346 3.32834 9.8393 1.83301 8.0013 1.83301ZM6.0013 5.16634C6.0013 4.06367 6.89863 3.16634 8.0013 3.16634C9.10397 3.16634 10.0013 4.06367 10.0013 5.16634V6.49967H6.0013V5.16634ZM12.0026 13.833H8.66797V12.3143C9.06464 12.083 9.33463 11.6577 9.33463 11.1663C9.33463 10.431 8.73664 9.83301 8.0013 9.83301C7.26597 9.83301 6.66797 10.431 6.66797 11.1663C6.66797 11.657 6.93797 12.083 7.33464 12.3143V13.833H4.0013V7.83301H12.0013L12.0026 13.833Z" fill="#111111"/>
</svg>
