<svg width="105" height="29" viewBox="0 0 105 29" fill="none" xmlns="http://www.w3.org/2000/svg">
<path d="M30.132 3.052L25.956 28H18.288L15.192 8.956L11.916 28H4.428L0.324 3.052H6.228L8.712 23.536L12.168 3.052H18.36L21.6 23.536L24.516 3.052H30.132ZM46.8146 22.456C46.8146 23.176 46.9106 23.704 47.1026 24.04C47.3186 24.376 47.6546 24.628 48.1106 24.796L46.9226 28.504C45.7466 28.408 44.7866 28.156 44.0426 27.748C43.2986 27.316 42.7226 26.644 42.3146 25.732C41.0666 27.652 39.1466 28.612 36.5546 28.612C34.6586 28.612 33.1466 28.06 32.0186 26.956C30.8906 25.852 30.3266 24.412 30.3266 22.636C30.3266 20.548 31.0946 18.952 32.6306 17.848C34.1666 16.744 36.3866 16.192 39.2906 16.192H41.2346V15.364C41.2346 14.236 40.9946 13.468 40.5146 13.06C40.0346 12.628 39.1946 12.412 37.9946 12.412C37.3706 12.412 36.6146 12.508 35.7266 12.7C34.8386 12.868 33.9266 13.108 32.9906 13.42L31.6946 9.676C32.8946 9.22 34.1186 8.872 35.3666 8.632C36.6386 8.392 37.8146 8.272 38.8946 8.272C41.6306 8.272 43.6346 8.836 44.9066 9.964C46.1786 11.092 46.8146 12.784 46.8146 15.04V22.456ZM38.2106 24.544C39.5066 24.544 40.5146 23.932 41.2346 22.708V19.324H39.8306C38.5346 19.324 37.5626 19.552 36.9146 20.008C36.2906 20.464 35.9786 21.172 35.9786 22.132C35.9786 22.9 36.1706 23.5 36.5546 23.932C36.9626 24.34 37.5146 24.544 38.2106 24.544ZM56.0697 28.612C54.4137 28.612 53.1177 28.144 52.1817 27.208C51.2697 26.248 50.8137 24.892 50.8137 23.14V1.288L56.5017 0.675998V22.924C56.5017 23.716 56.8257 24.112 57.4737 24.112C57.8097 24.112 58.1217 24.052 58.4097 23.932L59.5257 27.964C58.4937 28.396 57.3417 28.612 56.0697 28.612ZM66.7572 28.612C65.1012 28.612 63.8052 28.144 62.8692 27.208C61.9572 26.248 61.5012 24.892 61.5012 23.14V1.288L67.1892 0.675998V22.924C67.1892 23.716 67.5132 24.112 68.1612 24.112C68.4972 24.112 68.8092 24.052 69.0972 23.932L70.2132 27.964C69.1812 28.396 68.0292 28.612 66.7572 28.612ZM88.8609 18.064C88.8609 18.856 88.8249 19.54 88.7529 20.116H76.9089C77.1009 21.724 77.5569 22.852 78.2769 23.5C78.9969 24.148 79.9929 24.472 81.2649 24.472C82.0329 24.472 82.7769 24.34 83.4969 24.076C84.2169 23.788 84.9969 23.356 85.8369 22.78L88.1769 25.948C85.9449 27.724 83.4609 28.612 80.7249 28.612C77.6289 28.612 75.2529 27.7 73.5969 25.876C71.9409 24.052 71.1129 21.604 71.1129 18.532C71.1129 16.588 71.4609 14.848 72.1569 13.312C72.8529 11.752 73.8729 10.528 75.2169 9.64C76.5609 8.728 78.1689 8.272 80.0409 8.272C82.8009 8.272 84.9609 9.136 86.5209 10.864C88.0809 12.592 88.8609 14.992 88.8609 18.064ZM83.2809 16.444C83.2329 13.516 82.2009 12.052 80.1849 12.052C79.2009 12.052 78.4329 12.412 77.8809 13.132C77.3529 13.852 77.0289 15.04 76.9089 16.696H83.2809V16.444ZM104.044 27.1C103.348 27.58 102.532 27.952 101.596 28.216C100.684 28.48 99.7722 28.612 98.8602 28.612C94.6842 28.588 92.5962 26.284 92.5962 21.7V12.844H89.8962V8.884H92.5962V4.744L98.2842 4.096V8.884H102.676L102.064 12.844H98.2842V21.628C98.2842 22.516 98.4282 23.152 98.7162 23.536C99.0042 23.92 99.4602 24.112 100.084 24.112C100.732 24.112 101.416 23.908 102.136 23.5L104.044 27.1Z" fill="#127384"/>
</svg>
