<svg viewBox="0 0 512 512" width="512pt" xmlns="http://www.w3.org/2000/svg"xmlns:xlink="http://www.w3.org/1999/xlink">
  <linearGradient id="linear0" gradientUnits="userSpaceOnUse" x1="256" x2="256" y1="0"
      y2="512">
      <stop offset="0" stop-color="#2af598" />
      <stop offset="1" stop-color="#009efd" />
  </linearGradient>
  <path d="m436 472v-20c0-33.085938-26.917969-60-60-60h-10v-41h100v-20c0-115.792969-94.207031-210-210-210s-210 94.207031-210 210v20h100v41h-10c-33.085938 0-60 26.914062-60 60v20h-76v40h512v-40zm-180-311c86.976562 0 158.90625 65.648438 168.832031 150h-337.664062c9.925781-84.351562 81.855469-150 168.832031-150zm-70 190h140v41h-140zm-70 101c0-11.027344 8.972656-20 20-20h240c11.027344 0 20 8.972656 20 20v20h-280zm160-371h-40v-81h40zm90.90625 25.058594-37.171875-14.773438 29.910156-75.273437 37.175781 14.773437zm74.921875 56.519531-29.140625-27.402344 55.488281-59.007812 29.140625 27.402343zm-296.734375-56.519531-29.914062-75.273438 37.175781-14.773437 29.910156 75.273437zm-74.921875 56.519531-55.488281-59.007813 29.140625-27.402343 55.488281 59.007812zm0 0" fill="url(#linear0)" />
</svg>
