<svg id="Layer_1" enable-background="new 0 0 512 512" viewBox="0 0 512 512" width="512" xmlns="http://www.w3.org/2000/svg">
  <path d="m419.665 356.394v85.106h-328v-85.106c0-34.932 13.661-68.479 38.064-93.473l47.212-48.355c9.119-9.34 14.224-21.876 14.224-34.93v-104.136h30 69 30v104.136c0 13.054 5.105 25.59 14.224 34.93l47.212 48.355c24.403 24.994 38.064 58.541 38.064 93.473z" fill="#26c6da" />
  <path d="m381.601 262.921-47.211-48.355c-9.119-9.34-14.224-21.876-14.224-34.93v-104.136h-30v104.136c0 13.054 5.105 25.59 14.224 34.93l47.211 48.355c24.403 24.994 38.064 58.541 38.064 93.473v85.106h30v-85.106c0-34.932-13.661-68.479-38.064-93.473z" fill="#00bcd4" />
  <path d="m436.665 473.5h-362c-4.418 0-8-3.582-8-8v-16c0-4.418 3.582-8 8-8h362c4.418 0 8 3.582 8 8v16c0 4.418-3.582 8-8 8z" fill="#80deea" />
  <path d="m436.665 441.5h-30c4.418 0 8 3.582 8 8v16c0 4.418-3.582 8-8 8h30c4.418 0 8-3.582 8-8v-16c0-4.418-3.582-8-8-8z" fill="#4dd0e1" />
  <circle cx="255.665" cy="266.5" fill="#fbf2df" r="111" />
  <path d="m255.665 155.5c-5.088 0-10.094.35-15 1.013 54.208 7.324 96 53.772 96 109.987 0 56.216-41.792 102.664-96 109.987 4.906.663 9.912 1.013 15 1.013 61.304 0 111-49.696 111-111s-49.696-111-111-111z" fill="#f2e5ce" />
  <path d="m504.5 164.123c0 15.551-7.169 35.837-12.336 48.439-2.834 6.913-10.07 10.948-17.445 9.718l-85.968-14.337c-8.5-1.418-14.35-9.307-13.23-17.844l5.703-43.484c-2.373-45.545-60.231-57.1-95.289-57.1h-59.871c-35.057 0-92.915 11.554-95.288 57.1l5.696 43.486c1.118 8.536-4.731 16.423-13.23 17.841l-85.96 14.338c-7.375 1.23-14.611-2.805-17.446-9.718-5.167-12.602-12.336-32.888-12.336-48.439 0-32.816 35.598-125.623 217.203-125.623h62.594c181.605 0 217.203 92.807 217.203 125.623z" fill="#80deea" />
  <path d="m100.776 146.616 5.696 43.486c1.118 8.536-4.731 16.423-13.23 17.841l-68.16 11.368c3.405 2.538 7.773 3.707 12.199 2.969l85.961-14.337c8.499-1.418 14.348-9.305 13.23-17.841l-5.696-43.486c2.373-45.545 60.231-57.1 95.288-57.1h-30c-35.057 0-92.915 11.555-95.288 57.1z" fill="#4dd0e1" />
  <path d="m287.297 38.5h-30c181.604 0 217.203 92.807 217.203 125.623 0 15.551-7.169 35.837-12.336 48.439-1.134 2.764-2.979 5.058-5.247 6.749l17.802 2.969c7.375 1.23 14.611-2.805 17.446-9.718 5.167-12.602 12.336-32.888 12.336-48.439-.001-32.816-35.599-125.623-217.204-125.623z" fill="#4dd0e1" />
  <path d="m502.385 181.05c-2.51 11.47-6.8 23.17-10.22 31.51-2.84 6.92-10.07 10.95-17.45 9.72l-85.96-14.34c-8.5-1.41-14.35-9.3-13.23-17.84l4.1-31.24c46.58 4.93 88.33 12.56 122.76 22.19z" fill="#f76c57" />
  <path d="m462.164 212.563c-1.133 2.764-2.978 5.057-5.246 6.748l17.797 2.969c7.38 1.23 14.61-2.8 17.45-9.72 3.42-8.34 7.71-20.04 10.22-31.51-9.062-2.535-18.644-4.926-28.674-7.171-1.995 13.571-7.409 28.59-11.547 38.684z" fill="#e7387f" />
  <path d="m123.245 208.11-85.96 14.34c-7.38 1.23-14.61-2.8-17.45-9.72-3.44-8.38-7.76-20.15-10.27-31.68 34.47-9.6 76.23-17.19 122.8-22.1l4.11 31.32c1.12 8.54-4.73 16.43-13.23 17.84z" fill="#f76c57" />
  <path d="m136.475 190.27-4.11-31.32c-10.083 1.063-19.925 2.259-29.532 3.567l3.642 27.753c1.12 8.54-4.73 16.43-13.23 17.84l-68.163 11.371c3.405 2.539 7.773 3.707 12.203 2.969l85.96-14.34c8.5-1.41 14.35-9.3 13.23-17.84z" fill="#e7387f" />
  <path d="m468.904 83.331c-18.286-15.799-41.425-28.235-68.774-36.962-31.962-10.198-69.924-15.369-112.833-15.369h-62.594c-59.156 0-108.398 9.747-146.359 28.971-3.695 1.872-5.174 6.384-3.303 10.079 1.873 3.696 6.385 5.173 10.08 3.303 35.841-18.15 82.803-27.353 139.582-27.353h62.594c41.359 0 77.788 4.932 108.273 14.659 25.409 8.107 46.782 19.554 63.526 34.021 27.977 24.174 37.904 52.516 37.904 69.443 0 2.289-.186 4.815-.549 7.547-31.735-8.347-68.124-14.87-108.4-19.432l.609-4.647c.06-.452.077-.91.054-1.365-2.47-47.393-56.909-64.209-102.778-64.209h-59.871c-10.8 0-38.554 1.182-62.969 12.126-24.849 11.14-38.614 29.149-39.81 52.083-.023.456-.006.912.054 1.364l.62 4.733c-40.292 4.544-76.685 11.037-108.412 19.343-.363-2.73-.548-5.254-.548-7.543 0-15.077 9.311-47.75 44.205-74.578 3.284-2.524 3.899-7.233 1.375-10.517-2.524-3.283-7.233-3.899-10.518-1.375-36.951 28.409-50.062 64.336-50.062 86.47 0 5.565.809 11.609 2.107 17.727.044.403.12.808.233 1.212.035.124.072.246.113.367 2.566 11.393 6.73 22.92 10.444 31.978 4.189 10.219 14.716 16.09 25.619 14.271l85.96-14.337c12.549-2.093 21.085-13.607 19.434-26.213l-5.604-42.781c1.124-16.863 11.526-29.82 30.927-38.517 4.714-2.114 9.591-3.818 14.438-5.193v69.799c-22.045 16.913-37.999 41.389-43.948 69.513l-15.359 15.732c-25.92 26.556-40.194 61.612-40.194 98.709v77.61h-9.505c-8.547 0-15.5 6.953-15.5 15.5v16c0 8.547 6.953 15.5 15.5 15.5h21.2c4.143 0 7.5-3.358 7.5-7.5s-3.357-7.5-7.5-7.5h-21.2c-.275 0-.5-.224-.5-.5v-16c0-.276.225-.5.5-.5h362c.275 0 .5.224.5.5v16c0 .276-.225.5-.5.5h-307.684c-4.143 0-7.5 3.358-7.5 7.5s3.357 7.5 7.5 7.5h307.684c8.547 0 15.5-6.953 15.5-15.5v-16c0-8.547-6.953-15.5-15.5-15.5h-9.495v-77.61c0-15.493-2.528-30.786-7.515-45.452-1.332-3.921-5.595-6.016-9.515-4.687-3.922 1.333-6.021 5.593-4.687 9.515 4.456 13.108 6.716 26.776 6.716 40.624v77.61h-313v-77.61c0-33.159 12.76-64.494 35.927-88.231l2.07-2.12c0 .154-.001.307-.001.461 0 65.341 53.159 118.5 118.5 118.5s118.5-53.159 118.5-118.5c0-.154-.001-.307-.001-.461l2.069 2.119c6.063 6.212 11.501 13.071 16.16 20.387 2.229 3.5 6.866 4.519 10.355 2.297 3.493-2.225 4.521-6.861 2.297-10.354-5.213-8.185-11.296-15.858-18.079-22.808l-15.358-15.732c-5.947-28.12-21.897-52.593-43.938-69.506v-69.992c5.064 1.406 10.169 3.169 15.098 5.379 19.4 8.697 29.802 21.653 30.927 38.516l-5.61 42.777c-1.654 12.607 6.882 24.124 19.433 26.217l85.969 14.337c1.322.22 2.639.328 3.94.328 9.416 0 17.995-5.62 21.678-14.599 5.881-14.346 12.895-34.892 12.895-51.282 0-20.092-11.287-53.308-43.096-80.792zm-346.895 117.214-85.961 14.337c-3.951.661-7.757-1.467-9.272-5.165-3.424-8.35-6.154-16.226-8.12-23.357 30.97-8.132 67.749-14.704 107.253-19.162l3.128 23.877c.596 4.554-2.491 8.713-7.028 9.47zm237.156 65.955c0 57.07-46.43 103.5-103.5 103.5s-103.5-46.43-103.5-103.5c0-6.629.627-13.114 1.823-19.4.013-.062.024-.124.035-.186 9.181-47.738 51.266-83.914 101.642-83.914 57.07 0 103.5 46.43 103.5 103.5zm-46.495-103.866c-16.923-9.325-36.356-14.634-57.005-14.634-20.646 0-40.075 5.307-56.995 14.629v-63.328c11.726-1.96 21.933-2.285 27.395-2.285h59.871c5.359 0 15.286.313 26.734 2.177zm163.282 52.249-85.968-14.337c-4.538-.757-7.625-4.917-7.027-9.47l3.143-23.961c39.491 4.476 76.267 11.078 107.243 19.251-1.966 7.129-4.695 15.004-8.118 23.351-1.518 3.699-5.329 5.825-9.273 5.166z" />
  <path d="m238.434 225.668h-30.519c-6.94 0-12.587 5.646-12.587 12.586 0 4.142 3.357 7.5 7.5 7.5 3.298 0 6.099-2.128 7.104-5.086h26.088v15.519h-28.104c-6.94 0-12.587 5.646-12.587 12.586v20.346c0 6.94 5.646 12.586 12.587 12.586h35.604c4.143 0 7.5-3.358 7.5-7.5s-3.357-7.5-7.5-7.5h-33.191v-15.519h28.105c6.939 0 12.586-5.646 12.586-12.586v-20.346c0-6.94-5.647-12.586-12.586-12.586z" />
  <path d="m272.896 271.441h28.105v23.019c0 4.142 3.357 7.5 7.5 7.5s7.5-3.358 7.5-7.5v-61.037c0-4.142-3.357-7.5-7.5-7.5s-7.5 3.358-7.5 7.5v23.019h-25.691v-23.019c0-4.142-3.357-7.5-7.5-7.5s-7.5 3.358-7.5 7.5v25.432c.001 6.939 5.647 12.586 12.586 12.586z" />
</svg>
