<svg xmlns="http://www.w3.org/2000/svg" viewBox="0 0 24 24"><path d="M19.5 15.75a.75.75 0 1 1-1.5 0 .75.75 0 0 1 1.5 0m1.5 0a2.25 2.25 0 1 0-4.5 0 2.25 2.25 0 0 0 4.5 0m-13.5 0a.75.75 0 1 1-1.5 0 .75.75 0 0 1 1.5 0m1.5 0a2.25 2.25 0 1 0-4.5 0 2.25 2.25 0 0 0 4.5 0m8.25-.75h-9a.75.75 0 0 0 0 1.5h9a.75.75 0 0 0 0-1.5m-12 0h-3a.75.75 0 0 1-.75-.75v-1.5a.75.75 0 0 1 .75-.75H3c1.184 0 1.792-.398 4.312-2.414C9.168 8.1 10.22 7.5 11.25 7.5H15c.635 0 1.216.359 1.5.927l1.58 3.158a.75.75 0 0 0 .67.415h1.5a2.25 2.25 0 0 1 2.25 2.25.75.75 0 0 1-.75.75h-1.5a.75.75 0 0 0 0 1.5h1.5A2.25 2.25 0 0 0 24 14.25a3.75 3.75 0 0 0-3.75-3.75h-1.5l.67.415-1.578-3.158A3.18 3.18 0 0 0 15 6h-3.75c-1.501 0-2.746.712-4.875 2.414C4.255 10.11 3.66 10.5 3 10.5h-.75A2.25 2.25 0 0 0 0 12.75v1.5a2.25 2.25 0 0 0 2.25 2.25h3a.75.75 0 0 0 0-1.5M3 11.25V9a.75.75 0 0 0-.415-.67l-1.5-.75a.75.75 0 0 0-.67 1.34l1.5.75L1.5 9v2.25a.75.75 0 0 0 1.5 0m15.75-.75H3A.75.75 0 0 0 3 12h15.75a.75.75 0 0 0 0-1.5"></path></svg>