<svg xmlns="http://www.w3.org/2000/svg" viewBox="0 0 24 24"><path d="M18 17a.75.75 0 1 1-1.5 0 .75.75 0 0 1 1.5 0m1.5 0a2.25 2.25 0 1 0-4.5 0 2.25 2.25 0 0 0 4.5 0M6 17a.75.75 0 1 1-1.5 0A.75.75 0 0 1 6 17m1.5 0A2.25 2.25 0 1 0 3 17a2.25 2.25 0 0 0 4.5 0m8.25-.75h-9a.75.75 0 0 0 0 1.5h9a.75.75 0 0 0 0-1.5m-12 0h-1.5a.75.75 0 0 1-.75-.75V14a2.25 2.25 0 0 1 2.25-2.25.75.75 0 0 0 .67-.415l1.836-3.67a.75.75 0 0 1 .67-.415h7.901a.75.75 0 0 1 .671.415l1.83 3.67a.75.75 0 0 0 .672.415h2.25A2.25 2.25 0 0 1 22.5 14v1.5a.75.75 0 0 1-.75.75h-3a.75.75 0 0 0 0 1.5h3A2.25 2.25 0 0 0 24 15.5V14a3.75 3.75 0 0 0-3.75-3.75H18l.671.415-1.83-3.67a2.25 2.25 0 0 0-2.014-1.245h-7.9a2.25 2.25 0 0 0-2.013 1.244l-1.835 3.67.671-.414A3.75 3.75 0 0 0 0 14v1.5a2.25 2.25 0 0 0 2.25 2.25h1.5a.75.75 0 0 0 0-1.5m14.25-6H3.75a.75.75 0 0 0 0 1.5H18a.75.75 0 0 0 0-1.5"></path></svg>