<svg xmlns="http://www.w3.org/2000/svg" viewBox="0 0 24 24"><path fill-rule="evenodd" d="M5.02 7.03a.72.72 0 0 1 .57-.28h7.25c.21 0 .41.09.55.24l2.89 3.13H2.76c.18-.27.38-.57.6-.88.58-.82 1.23-1.67 1.66-2.22Zm-2.62 4.6h18.07c.7 0 1.27.57 1.27 1.27 0 .51-.31.98-.78 1.18l-2.64 1.1c-.41-.56-1.07-.93-1.82-.93-.98 0-1.82.63-2.13 1.51-.04 0-.08-.01-.12-.01H8.12c-.31-.87-1.14-1.5-2.12-1.5-.66 0-1.25.28-1.66.73a7.05 7.05 0 0 1-1.94-3.36Zm11.97 5.61s-.08.01-.12.01H8.12c-.31.87-1.14 1.5-2.12 1.5-1.24 0-2.25-1.01-2.25-2.25v-.03l-.07-.06a8.6 8.6 0 0 1-2.93-5.44c-.02-.12 0-.24.04-.35.1-.3.31-.66.53-1.02.23-.38.52-.8.82-1.22.6-.85 1.27-1.72 1.7-2.27s1.08-.85 1.76-.85h7.25c.63 0 1.23.26 1.65.72l3.83 4.15h2.15a2.77 2.77 0 0 1 1.06 5.33l-2.8 1.16a2.256 2.256 0 0 1-4.38.61ZM6 17.25c.41 0 .75-.34.75-.75s-.34-.75-.75-.75-.75.34-.75.75.34.75.75.75m11.25-.75c0 .41-.34.75-.75.75s-.75-.34-.75-.75.34-.75.75-.75.75.34.75.75"></path></svg>