<svg xmlns="http://www.w3.org/2000/svg" viewBox="0 0 24 24"><path d="M19.468 21.75a.75.75 0 1 1-1.5 0 .75.75 0 0 1 1.5 0m1.5 0a2.25 2.25 0 1 0-4.5 0 2.25 2.25 0 0 0 4.5 0m-15 0a.75.75 0 1 1-1.5 0 .75.75 0 0 1 1.5 0m1.5 0a2.25 2.25 0 1 0-4.5 0 2.25 2.25 0 0 0 4.5 0m12.75.75h1.532A2.25 2.25 0 0 0 24 20.25 5.28 5.28 0 0 0 18.717 15l.713.513c-.08-.24-.238-.638-.482-1.143a13.6 13.6 0 0 0-1.513-2.455c-1.771-2.278-4.083-3.665-6.967-3.665C4.554 8.25.358 12.258.002 20.182A2.22 2.22 0 0 0 2.217 22.5h1.501a.75.75 0 0 0 0-1.5h-1.53a.72.72 0 0 1-.688-.751C1.82 13.127 5.356 9.75 10.468 9.75c2.366 0 4.273 1.144 5.783 3.085a12.2 12.2 0 0 1 1.755 3.152.75.75 0 0 0 .713.513 3.777 3.777 0 0 1 3.781 3.755.75.75 0 0 1-.75.745h-1.532a.75.75 0 0 0 0 1.5m-3-1.5h-10.5a.75.75 0 0 0 0 1.5h10.5a.75.75 0 0 0 0-1.5m1.5-6H1.484a.75.75 0 0 0 0 1.5h17.234a.75.75 0 0 0 0-1.5m-8.218.75V9.025a.75.75 0 0 0-1.5 0v6.725a.75.75 0 0 0 1.5 0m-5.25-9V5.5a.25.25 0 0 1 .25-.25H14a.25.25 0 0 1 .25.25V8a.25.25 0 0 1-.25.25H5.5A.25.25 0 0 1 5.25 8zm-1.5 0V8c0 .966.784 1.75 1.75 1.75H14A1.75 1.75 0 0 0 15.75 8V5.5A1.75 1.75 0 0 0 14 3.75H5.5A1.75 1.75 0 0 0 3.75 5.5zm3-4.125V1.75A.25.25 0 0 1 7 1.5h5.5a.25.25 0 0 1 .25.25V3.5a.25.25 0 0 1-.25.25H7a.25.25 0 0 1-.25-.25zm-1.5 0V3.5c0 .966.784 1.75 1.75 1.75h5.5a1.75 1.75 0 0 0 1.75-1.75V1.75A1.75 1.75 0 0 0 12.5 0H7a1.75 1.75 0 0 0-1.75 1.75zm6 1.875V9a.75.75 0 0 0 1.5 0V4.5a.75.75 0 0 0-1.5 0m-4.5 0V9a.75.75 0 0 0 1.5 0V4.5a.75.75 0 0 0-1.5 0"></path></svg>