<svg xmlns="http://www.w3.org/2000/svg" viewBox="0 0 24 24"><path d="M8.25 18a1.5 1.5 0 1 1-3 0 1.5 1.5 0 0 1 3 0m1.5 0a3 3 0 1 0-6 0 3 3 0 0 0 6 0m10.5 0a1.5 1.5 0 1 1-3 0 1.5 1.5 0 0 1 3 0m1.5 0a3 3 0 1 0-6 0 3 3 0 0 0 6 0M3.056 15.429a4.5 4.5 0 0 1 7.388 0 .75.75 0 0 0 .615.321h3.382a.75.75 0 0 0 .615-.321 4.5 4.5 0 0 1 7.388 0 .75.75 0 0 0 1.23-.858 6 6 0 0 0-9.848 0l.615-.321h-3.382V15l.616-.429a6 6 0 0 0-9.85 0 .75.75 0 1 0 1.231.858M22.5 13.69v-2.44A2.25 2.25 0 0 0 20.25 9H3.75a.75.75 0 0 0-.75.75v3.942a.75.75 0 0 0 1.5 0V9.75l-.75.75h16.5a.75.75 0 0 1 .75.75v2.441a.75.75 0 0 0 1.5 0zm-4.529-4.147-1.189-4.162A2.25 2.25 0 0 0 14.62 3.75h-7a2.25 2.25 0 0 0-1.951 1.134l-2.57 4.494a.75.75 0 1 0 1.303.744l2.57-4.494a.75.75 0 0 1 .65-.378h6.998a.75.75 0 0 1 .72.544l1.19 4.162a.75.75 0 1 0 1.442-.412zM0 7.5v5.25a.75.75 0 0 0 1.5 0V7.5a.75.75 0 0 0-1.5 0m9-3v5.25a.75.75 0 0 0 1.5 0V4.5a.75.75 0 0 0-1.5 0"></path></svg>