<svg xmlns="http://www.w3.org/2000/svg" viewBox="0 0 24 24"><path fill-rule="evenodd" d="M0 6.75C0 4.68 1.68 3 3.75 3H15.1c1.37 0 2.63.74 3.29 1.94l3.03 5.5a.3.3 0 0 0 .21.15c1.37.23 2.38 1.41 2.38 2.8v1.6c0 1.98-1.53 3.59-3.47 3.74a3.004 3.004 0 0 1-5.82.01H7.78c-.33 1.29-1.51 2.25-2.91 2.25s-2.68-1.04-2.95-2.43A3.06 3.06 0 0 1 0 15.71zM16.12 18c0 .83.67 1.5 1.5 1.5s1.5-.67 1.5-1.5-.67-1.5-1.5-1.5-1.5.67-1.5 1.5m4.4-.77c-.34-1.29-1.51-2.23-2.9-2.23s-2.57.96-2.91 2.25H7.77A3.006 3.006 0 0 0 4.86 15c-1.28 0-2.37.8-2.8 1.93a1.58 1.58 0 0 1-.57-1.22V12h19.58c.1.03.2.06.3.08.65.11 1.12.67 1.12 1.33v1.6c0 1.15-.86 2.1-1.97 2.23ZM4.87 16.5c-.82 0-1.49.66-1.5 1.49v.02c0 .82.68 1.49 1.5 1.49s1.5-.67 1.5-1.5-.67-1.5-1.5-1.5m9.75-6h5.11l-1.65-3h-3.46zm-1.5-3v3H1.5v-3zm3.95-1.83.18.33H1.63c.31-.87 1.14-1.5 2.12-1.5H15.1c.82 0 1.58.45 1.97 1.17"></path></svg>