<svg id="Capa_1" enable-background="new 0 0 512 512" viewBox="0 0 512 512" xmlns="http://www.w3.org/2000/svg">
  <g>
    <path d="m406.312 482v-384.132h-39.99v-64.972h-95.322v-32.896h-30v32.896h-95.322v64.972h-39.99v384.132h-54.4v30h409.424v-30zm-230.634-419.104h160.644v34.972h-160.644zm140.634 419.104h-45.312v-109.629h45.312zm-75.312 0h-45.312v-109.629h45.312zm105.312 0v-139.629h-180.624v139.629h-30v-354.132h240.624v354.132z" />
    <path d="m165.688 158.205h30v30h-30z" />
    <path d="m316.312 158.205h30v30h-30z" />
    <path d="m241 158.205h30v30h-30z" />
    <path d="m165.688 218.541h30v30h-30z" />
    <path d="m316.312 218.541h30v30h-30z" />
    <path d="m241 218.541h30v30h-30z" />
    <path d="m165.688 278.878h30v30h-30z" />
    <path d="m316.312 278.878h30v30h-30z" />
    <path d="m241 278.878h30v30h-30z" />
  </g>
</svg>
