<svg width="35" height="35" viewBox="0 0 35 35" fill="none" xmlns="http://www.w3.org/2000/svg">
<path d="M13.4332 2.91079L9.00355 5.81607H6.31702C4.60804 5.81607 3.50062 5.84341 3.2682 5.89126C2.7555 6.00064 1.9557 6.38345 1.54554 6.71841C1.06019 7.11489 0.718392 7.53872 0.438119 8.10611C-0.0267252 9.04947 -0.0062174 8.38638 0.0142904 20.6706L0.0347982 31.7585L0.253548 32.3258C0.650033 33.3581 1.3473 34.1374 2.27699 34.5954C3.16566 35.0329 2.11976 35.0055 17.3092 35.0055C24.9244 35.0055 31.2135 34.985 31.275 34.9645C31.5758 34.8483 31.5826 34.7252 31.5826 31.0202V27.5065L32.3893 27.4655C33.6881 27.404 34.3512 27.0485 34.7887 26.1735L35.0006 25.7565V21.5729V17.3961L34.8229 17.0475C34.5905 16.5827 34.1666 16.1588 33.7018 15.9401C33.3737 15.7897 33.2164 15.7624 32.4576 15.7418L31.5826 15.7145V10.9635V6.21255L31.3844 6.01431L31.1862 5.81607H29.3131H27.4469L26.8659 3.94986C26.2506 1.98111 26.1207 1.7145 25.7516 1.7145C25.6627 1.7145 24.5143 2.12466 23.2018 2.63052C21.8893 3.12954 20.7955 3.53286 20.7682 3.51919C20.7477 3.50552 20.2418 2.73989 19.6539 1.81704C19.0592 0.894192 18.5192 0.108059 18.4508 0.0738792C18.0817 -0.131199 18.0475 -0.110691 13.4332 2.91079ZM18.7584 2.75357C19.1959 3.43716 19.5446 4.00454 19.5309 4.01138C19.5104 4.03189 8.25843 8.32486 7.07581 8.76919C6.77503 8.87857 6.56312 8.94009 6.5973 8.90591C6.71351 8.7897 17.8561 1.50943 17.9108 1.50943C17.9381 1.50943 18.3209 2.06997 18.7584 2.75357ZM26.8317 7.96939C27.6451 10.5602 28.3287 12.7067 28.3493 12.734C28.3629 12.7682 28.0075 12.7887 27.5563 12.7887H26.7428L25.9088 10.2936C25.2389 8.277 25.0475 7.77114 24.9176 7.68911C24.8287 7.63443 24.5553 7.55239 24.3024 7.51822C23.735 7.44302 23.4069 7.27212 22.9078 6.81411C22.6891 6.61587 22.4293 6.4313 22.3336 6.40396C22.1901 6.36978 20.194 7.08755 13.4537 9.58267L4.7516 12.8024L4.10218 12.7682C3.35706 12.7409 2.86488 12.5768 2.4137 12.2213L2.1266 11.9889L13.693 7.57974C20.0573 5.15982 25.2799 3.19107 25.3004 3.21157C25.3209 3.23208 26.0114 5.37173 26.8317 7.96939ZM7.01429 7.09439C6.98695 7.12173 5.71546 7.96939 4.18421 8.97427C1.07386 11.0114 1.33363 10.9088 1.2516 10.1295C1.21058 9.67154 1.35413 9.02896 1.6139 8.54361C1.96937 7.89419 2.7555 7.28579 3.47327 7.12173C3.78089 7.04654 7.08265 7.02603 7.01429 7.09439ZM30.3522 9.92447V12.7956L29.9967 12.7751L29.6481 12.7545L28.7457 9.89712L27.8434 7.04654H29.0944H30.3522V9.92447ZM22.1832 7.86685C22.4157 8.11978 22.9967 8.4479 23.5436 8.62564L24.0905 8.80337L24.7535 10.7995L25.4166 12.7887H16.9401C12.2711 12.7887 8.47035 12.7751 8.48402 12.7614C8.49769 12.7477 11.0953 11.777 14.2535 10.6081C17.4118 9.44595 20.4401 8.31802 20.9869 8.11294C21.5338 7.90786 21.9987 7.73697 22.0192 7.73697C22.0397 7.73013 22.1149 7.79165 22.1832 7.86685ZM1.70277 13.2536C2.13343 13.5817 2.46839 13.7389 3.06312 13.8893C3.56898 14.0192 3.92445 14.0192 16.9674 14.0192H30.3522V16.6168V19.2145H26.9547C23.1403 19.2145 22.983 19.235 22.0875 19.6725C21.7252 19.8502 21.4244 20.0758 21.0826 20.4108C20.317 21.1696 19.9274 22.0104 19.8522 23.07C19.736 24.6491 20.652 26.2897 22.026 26.9733C22.9899 27.445 22.901 27.4381 26.818 27.4655L30.3522 27.4997V30.6374V33.7751L16.8717 33.7614L3.38441 33.7409L2.98109 33.5495C2.43421 33.2965 2.0514 32.9684 1.72327 32.4762C1.20374 31.7038 1.23109 32.237 1.23109 22.0172C1.23109 14.7575 1.2516 12.9254 1.31995 12.9665C1.36097 13.0006 1.5387 13.1237 1.70277 13.2536ZM33.2233 17.1159C33.5651 17.2936 33.8385 17.7311 33.8385 18.0866C33.8385 18.442 33.5651 18.8795 33.2233 19.0573C32.9703 19.194 32.8268 19.2145 32.2526 19.2145H31.5826V18.0866V16.9586H32.2526C32.8268 16.9586 32.9703 16.9792 33.2233 17.1159ZM33.6881 25.5651C33.5035 25.9274 33.2848 26.1051 32.9088 26.1872C32.5397 26.276 24.2203 26.2692 23.6188 26.1872C22.3131 25.9958 21.3356 25.0456 21.11 23.7467C20.8639 22.2975 21.944 20.7936 23.441 20.5133C23.6666 20.4723 25.6217 20.445 28.4655 20.445C32.6696 20.4381 33.1549 20.4245 33.4625 20.3219L33.8043 20.2057L33.8248 22.7282C33.8385 25.237 33.8385 25.2575 33.6881 25.5651Z" fill="white"/>
<path d="M3.40396 15.7012C3.38346 15.7354 3.3151 15.9883 3.24674 16.2617C3.15787 16.6445 3.1442 16.7813 3.20572 16.8428C3.26041 16.8975 3.69791 16.9316 4.47721 16.9453L5.6735 16.9727V16.3506V15.7285H4.80533C4.31998 15.7285 3.82096 15.708 3.68424 15.6875C3.54752 15.6602 3.41764 15.6738 3.40396 15.7012Z" fill="white"/>
<path d="M7.92969 16.3438V16.959H9.12598H10.3223V16.3438V15.7285H9.12598H7.92969V16.3438Z" fill="white"/>
<path d="M12.5781 16.3438V16.959H13.7744H14.9707V16.3438V15.7285H13.7744H12.5781V16.3438Z" fill="white"/>
<path d="M17.2266 16.3438V16.959H18.457H19.6875V16.3438V15.7285H18.457H17.2266V16.3438Z" fill="white"/>
<path d="M21.9434 16.3438V16.959H23.1396H24.3359V16.3438V15.7285H23.1396H21.9434V16.3438Z" fill="white"/>
<path d="M26.5918 16.3438V16.959H27.6172H28.6426V16.3438V15.7285H27.6172H26.5918V16.3438Z" fill="white"/>
<path d="M3.40529 30.877C3.3301 31.0068 3.13185 31.9365 3.16603 31.9775C3.26174 32.0664 3.85646 32.1279 4.7383 32.1348H5.67482V31.5195V30.9043H4.86135C4.41701 30.9043 3.91799 30.8838 3.74709 30.8633C3.57619 30.8359 3.41896 30.8496 3.40529 30.877Z" fill="white"/>
<path d="M7.92969 31.5195V32.1348H9.12598H10.3223V31.5195V30.9043H9.12598H7.92969V31.5195Z" fill="white"/>
<path d="M12.5781 31.5195V32.1348H13.7744H14.9707V31.5195V30.9043H13.7744H12.5781V31.5195Z" fill="white"/>
<path d="M17.2266 31.5195V32.1348H18.457H19.6875V31.5195V30.9043H18.457H17.2266V31.5195Z" fill="white"/>
<path d="M21.9434 31.5195V32.1348H23.1396H24.3359V31.5195V30.9043H23.1396H21.9434V31.5195Z" fill="white"/>
<path d="M26.5918 31.5195V32.1348H27.6172H28.6426V31.5195V30.9043H27.6172H26.5918V31.5195Z" fill="white"/>
<path d="M23.5499 21.6006C22.6817 21.8398 22.1963 22.4551 22.1895 23.3164C22.1827 24.3691 22.9004 25.0869 23.9532 25.0938C24.5274 25.0938 24.8965 24.9365 25.2588 24.5332C25.6006 24.1641 25.7032 23.8838 25.7032 23.3506C25.7032 22.626 25.4161 22.1133 24.835 21.7988C24.4659 21.5938 23.8916 21.5117 23.5499 21.6006ZM24.1924 22.8721C24.5137 23.0361 24.5752 23.4395 24.3223 23.7061C24.0489 24 23.5772 23.8564 23.4268 23.4326C23.3653 23.2617 23.5088 22.9814 23.7139 22.8721C23.9395 22.749 23.96 22.749 24.1924 22.8721Z" fill="white"/>
</svg>
