<svg xmlns="http://www.w3.org/2000/svg" width="29" height="28" viewBox="0 0 29 28" fill="none">
<path d="M22.7917 4.66683H20.4583V2.3335H18.125V4.66683H11.125V2.3335H8.79167V4.66683H6.45833C5.1715 4.66683 4.125 5.71333 4.125 7.00016V23.3335C4.125 24.6203 5.1715 25.6668 6.45833 25.6668H22.7917C24.0785 25.6668 25.125 24.6203 25.125 23.3335V7.00016C25.125 5.71333 24.0785 4.66683 22.7917 4.66683ZM22.794 23.3335H6.45833V9.3335H22.7917L22.794 23.3335Z" fill="#737373"/>
<path d="M13.4576 20.3161L20.1158 13.658L18.4661 12.0083L13.4576 17.0168L10.7825 14.3416L9.13281 15.9913L13.4576 20.3161Z" fill="#737373"/>
</svg>