<svg width="35" height="35" viewBox="0 0 35 35" fill="none" xmlns="http://www.w3.org/2000/svg">
<path d="M4.68097 0.259575L4.44484 0.495525V1.36993V2.24434H3.5142C2.77803 2.24434 2.48633 2.2721 2.13213 2.38314C1.25706 2.65379 0.4931 3.39635 0.159736 4.30545L0 4.7496V17.5118V30.274L0.159736 30.7182C0.4931 31.6273 1.25706 32.3699 2.13213 32.6405C2.57662 32.7793 2.76414 32.7793 10.7301 32.7793H18.8767L19.092 32.5989C19.4879 32.2727 19.5017 31.6689 19.1267 31.315L18.9461 31.1485L10.8829 31.1138C3.17389 31.0791 2.79886 31.0721 2.56967 30.9472C2.22937 30.7668 2.02101 30.5655 1.85433 30.2463L1.70154 29.9687L1.68071 20.2669L1.66682 10.5721H16.3904H31.1139V14.729V18.8859L31.2945 19.101C31.6348 19.5105 32.2598 19.5105 32.6001 19.101L32.7807 18.8859V11.8212V4.7496L32.621 4.30545C32.2876 3.39635 31.5236 2.65379 30.6486 2.38314C30.2944 2.2721 30.0027 2.24434 29.2665 2.24434H28.3359V1.36993V0.495525L28.0997 0.259575C27.7525 -0.0874138 27.2524 -0.0874138 26.9052 0.259575L26.669 0.495525V1.36993V2.24434H21.9464H17.2238V1.36993V0.495525L16.9876 0.259575C16.7793 0.0513802 16.7098 0.0236206 16.3904 0.0236206C16.0709 0.0236206 16.0014 0.0513802 15.7931 0.259575L15.5569 0.495525V1.36993V2.24434H10.8343H6.11166V1.36993V0.495525L5.87552 0.259575C5.66717 0.0513802 5.59772 0.0236206 5.27825 0.0236206C4.95878 0.0236206 4.88933 0.0513802 4.68097 0.259575ZM4.44484 4.7843V5.65871L4.68097 5.89466C4.88933 6.10285 4.95878 6.13061 5.27825 6.13061C5.59772 6.13061 5.66717 6.10285 5.87552 5.89466L6.11166 5.65871V4.7843V3.90989H10.8343H15.5569V4.7843V5.65871L15.7931 5.89466C16.0014 6.10285 16.0709 6.13061 16.3904 6.13061C16.7098 6.13061 16.7793 6.10285 16.9876 5.89466L17.2238 5.65871V4.7843V3.90989H21.9464H26.669V4.7843V5.65871L26.9052 5.89466C27.1135 6.10285 27.183 6.13061 27.5025 6.13061C27.8219 6.13061 27.8914 6.10285 28.0997 5.89466L28.3359 5.65871V4.77736V3.88907L29.1554 3.92377C30.2319 3.97235 30.6 4.14584 30.9472 4.81206C31.0653 5.02719 31.0792 5.27008 31.1 6.97726L31.1278 8.90652H16.3904H1.65293L1.68071 6.97726C1.70154 5.26314 1.71543 5.02719 1.8335 4.81206C2.20159 4.11808 2.61134 3.93071 3.8059 3.91683L4.44484 3.90989V4.7843Z" fill="white"/>
<path d="M4.68144 13.584L4.44531 13.82V16.4016V18.9832L4.68144 19.2191L4.91758 19.4551H7.50114H10.0847L10.3208 19.2191L10.557 18.9832V16.4016V13.82L10.3208 13.584L10.0847 13.3481H7.50114H4.91758L4.68144 13.584ZM8.89015 16.4016V17.7895H7.50114H6.11213V16.4016V15.0136H7.50114H8.89015V16.4016Z" fill="white"/>
<path d="M13.5701 13.584L13.334 13.82V16.4016V18.9832L13.5701 19.2191L13.8062 19.4551H16.3898H18.9734L19.2095 19.2191L19.4456 18.9832V16.4016V13.82L19.2095 13.584L18.9734 13.3481H16.3898H13.8062L13.5701 13.584ZM17.7788 16.4016V17.7895H16.3898H15.0008V16.4016V15.0136H16.3898H17.7788V16.4016Z" fill="white"/>
<path d="M26.0445 20.1149C24.5444 20.4133 23.3012 21.0865 22.19 22.1968C21.058 23.3211 20.3982 24.5633 20.0996 26.1039C19.9884 26.7007 19.9676 28.1997 20.0718 28.7965C20.6204 31.9333 23.1137 34.3969 26.2737 34.9382C27.0585 35.0701 28.7253 34.9799 29.4823 34.7717C30.788 34.4039 31.9062 33.7446 32.8507 32.7869C33.9619 31.6627 34.6564 30.3302 34.9273 28.7965C35.0245 28.2622 35.0245 26.7493 34.9273 26.2149C34.3717 23.0921 31.9062 20.6284 28.7948 20.0802C28.2322 19.983 26.6001 20.0039 26.0445 20.1149ZM28.8573 21.8915C30.5519 22.3009 31.9826 23.4807 32.7465 25.0838C33.4619 26.5966 33.4619 28.4149 32.7465 29.9277C31.7603 32.0027 29.774 33.2727 27.503 33.2727C25.232 33.2727 23.2457 32.0027 22.2595 29.9138C21.5441 28.4149 21.5511 26.5897 22.2595 25.0838C23.454 22.5646 26.1904 21.2391 28.8573 21.8915Z" fill="white"/>
<path d="M26.9061 23.5772L26.6699 23.8132V25.8396V27.866L26.9061 28.1019L27.1422 28.3379H28.6145H30.0869L30.323 28.1019C30.5314 27.8937 30.5592 27.8243 30.5592 27.5051C30.5592 27.1859 30.5314 27.1165 30.323 26.9083L30.0869 26.6723H29.2118H28.3367V25.2428V23.8132L28.1006 23.5772C27.8923 23.369 27.8228 23.3413 27.5033 23.3413C27.1839 23.3413 27.1144 23.369 26.9061 23.5772Z" fill="white"/>
<path d="M4.68144 22.4669L4.44531 22.7028V25.2844V27.866L4.68144 28.1019L4.91758 28.3379H7.50114H10.0847L10.3208 28.1019L10.557 27.866V25.2844V22.7028L10.3208 22.4669L10.0847 22.2309H7.50114H4.91758L4.68144 22.4669ZM8.89015 25.2844V26.6723H7.50114H6.11213V25.2844V23.8964H7.50114H8.89015V25.2844Z" fill="white"/>
</svg>
