<svg width="35" height="35" viewBox="0 0 35 35" fill="none" xmlns="http://www.w3.org/2000/svg">
<g clip-path="url(#clip0_2213_59312)">
<path d="M17.0967 0.177984C17.0146 0.280523 16.9531 0.43775 16.9531 0.526617C16.9531 0.847906 16.7891 1.34009 16.5703 1.68189C16.208 2.25611 15.75 2.54322 14.998 2.6731C14.4443 2.76197 14.2188 2.93287 14.2188 3.24732C14.2188 3.52759 14.4307 3.74634 14.7451 3.7942C15.627 3.92408 16.1738 4.21802 16.5361 4.75806C16.7686 5.11353 16.9531 5.6399 16.9531 5.97486C16.96 6.36451 17.3291 6.62427 17.6846 6.48755C17.9238 6.39869 18.04 6.23462 18.0469 5.97486C18.0469 5.6399 18.2314 5.11353 18.4639 4.75806C18.8262 4.21802 19.373 3.92408 20.2549 3.7942C20.5693 3.74634 20.7812 3.52759 20.7812 3.24732C20.7812 2.92603 20.5557 2.75513 20.002 2.66627C19.2842 2.55005 18.8262 2.27662 18.4502 1.73658C18.2314 1.42212 18.0469 0.868414 18.0469 0.540289C18.0469 0.239508 17.8076 0.000249863 17.5 0.000249863C17.2949 0.000249863 17.2061 0.0412655 17.0967 0.177984ZM17.9238 2.82349L18.3545 3.25416L17.9307 3.67115L17.5 4.08814L17.0762 3.67115L16.6455 3.25416L17.0557 2.83033C17.2812 2.59791 17.4727 2.4065 17.4795 2.39966C17.4795 2.39966 17.6846 2.58423 17.9238 2.82349Z" fill="white"/>
<path d="M2.33105 7.23878C2.25586 7.31398 2.17383 7.51906 2.15332 7.70363C2.02344 8.59913 1.4834 9.15284 0.615234 9.26906C0.164062 9.33058 0 9.48097 0 9.8296C0 10.1782 0.150391 10.3081 0.65625 10.3901C1.45605 10.52 1.99609 11.0532 2.12598 11.8394C2.29004 12.8237 3.12402 12.8443 3.28125 11.8667C3.41797 11.0327 3.91699 10.5269 4.76465 10.3901C5.18164 10.3218 5.31836 10.2398 5.40723 9.99367C5.50293 9.74757 5.31836 9.37843 5.0791 9.33058C4.14941 9.13234 4.01953 9.07081 3.6709 8.688C3.43164 8.4214 3.3291 8.16847 3.24707 7.63527C3.22656 7.49171 3.14453 7.31398 3.06934 7.23878C2.89844 7.06788 2.50195 7.06788 2.33105 7.23878ZM2.95996 10.0825L2.70703 10.356L2.4541 10.0825L2.20117 9.81593L2.4541 9.55617L2.7002 9.30324L2.95996 9.563L3.21973 9.81593L2.95996 10.0825Z" fill="white"/>
<path d="M31.9301 7.23878C31.8549 7.31398 31.7728 7.49171 31.7523 7.63527C31.6703 8.16847 31.5678 8.4214 31.3285 8.688C30.9799 9.07081 30.85 9.13234 29.9203 9.33058C29.681 9.37843 29.4965 9.74757 29.5922 9.99367C29.681 10.2398 29.8178 10.3218 30.2348 10.3901C31.0824 10.5269 31.5814 11.0327 31.7181 11.8667C31.8754 12.8443 32.7094 12.8237 32.8734 11.8394C33.0033 11.0532 33.5433 10.52 34.3431 10.3901C34.849 10.3081 34.9994 10.1782 34.9994 9.8296C34.9994 9.48097 34.8353 9.33058 34.3842 9.26906C33.516 9.15284 32.976 8.59913 32.8461 7.70363C32.8256 7.51906 32.7435 7.31398 32.6683 7.23878C32.4974 7.06788 32.101 7.06788 31.9301 7.23878ZM32.5453 10.0825L32.2992 10.356L32.0394 10.0894L31.7865 9.81593L32.0326 9.563L32.2855 9.30324L32.5453 9.55617L32.7982 9.80909L32.5453 10.0825Z" fill="white"/>
<path d="M8.81063 9.42669C8.17489 9.63176 7.55966 10.1308 7.26571 10.6845C7.20419 10.8007 6.57528 12.5302 5.87118 14.5195L4.5997 18.1357L4.43564 17.4589C4.3331 17.0351 4.21005 16.7138 4.11435 16.5976L3.95028 16.4062H2.39169C0.921964 16.4062 0.82626 16.413 0.655362 16.5497L0.477628 16.6865V18.04C0.477628 19.831 0.320401 19.6874 2.27548 19.6874H3.75204L2.80868 21.0136C2.28232 21.745 1.8038 22.497 1.73544 22.6747C1.61239 22.9823 1.60556 23.2695 1.60556 26.9335V30.8642L1.8038 31.2675C1.91317 31.4931 2.15243 31.8281 2.337 32.0195L2.66513 32.3613V33.3183C2.66513 34.3984 2.73349 34.6034 3.15732 34.8632C3.36923 34.9931 3.4786 34.9999 5.44735 34.9863L7.51181 34.9657L7.7579 34.7265C8.05868 34.4394 8.13388 34.1728 8.13388 33.4072V32.8124H17.4308H26.7276V33.4072C26.7276 34.1728 26.8028 34.4394 27.1036 34.7265L27.3497 34.9657L29.4141 34.9863C31.3829 34.9999 31.4923 34.9931 31.7042 34.8632C32.128 34.6034 32.1964 34.3984 32.1964 33.3183V32.3613L32.5245 32.0195C32.7091 31.8281 32.9483 31.4931 33.0577 31.2675L33.2559 30.8642V26.9335C33.2559 23.2695 33.2491 22.9823 33.1261 22.6747C33.0577 22.497 32.5792 21.745 32.0528 21.0136L31.1095 19.6874H32.5997C34.5411 19.6874 34.3839 19.8378 34.3839 18.0331V16.6865L34.2061 16.5497C34.0352 16.413 33.9395 16.4062 32.4972 16.4062C31.6632 16.4062 30.9249 16.4267 30.8634 16.4472C30.7061 16.5087 30.5968 16.7685 30.419 17.4931L30.2618 18.1288L28.9835 14.5195C28.2862 12.5302 27.6573 10.8007 27.589 10.6777C27.4181 10.3427 27.0352 9.95305 26.6729 9.72063C25.9757 9.27629 26.4405 9.2968 17.4034 9.30364C9.71298 9.30364 9.1661 9.31047 8.81063 9.42669ZM25.9073 10.5751C26.1124 10.6845 26.3653 10.8759 26.4679 11.0058C26.6046 11.1767 27.0421 12.3388 27.9513 14.9023L29.2432 18.5595L27.6231 18.5937C26.7345 18.6142 25.962 18.6552 25.8936 18.6825C25.7022 18.7782 25.6065 19.1064 25.7022 19.3456C25.7501 19.4618 25.8253 19.5781 25.8663 19.6054C25.9073 19.6327 26.8028 19.6669 27.8556 19.6874L29.7628 19.7216L30.8429 21.2255C31.4376 22.0527 31.9845 22.8525 32.0597 23.0097C32.1895 23.2763 32.1964 23.413 32.1964 26.4072V29.5312H27.5479H22.8995V27.4599C22.8995 25.8398 22.879 25.3066 22.797 24.999C22.585 24.1923 21.9561 23.4882 21.1427 23.1601C20.7462 23.0029 20.7393 23.0029 17.4308 23.0029C14.1222 23.0029 14.1153 23.0029 13.7188 23.1601C12.9054 23.4882 12.2765 24.1923 12.0645 24.999C11.9825 25.3066 11.962 25.8398 11.962 27.4599V29.5312H7.31356H2.66513V26.4072C2.66513 23.413 2.67196 23.2763 2.80185 23.0097C2.87704 22.8525 3.42392 22.0527 4.01864 21.2255L5.09872 19.7216L14.6759 19.6874C23.9727 19.6532 24.2599 19.6464 24.3966 19.5234C24.5811 19.3593 24.588 19.0038 24.4102 18.7919L24.2804 18.6279L14.9493 18.5937L5.61825 18.5595L6.91024 14.9023C7.81942 12.332 8.25692 11.1767 8.39364 11.0058C8.49618 10.8759 8.74911 10.6845 8.95419 10.5751L9.32333 10.3906H17.4308H25.5382L25.9073 10.5751ZM3.43075 18.0126C3.49228 18.2724 3.5538 18.5116 3.5538 18.539C3.5538 18.5732 3.10946 18.5937 2.56259 18.5937H1.57138V18.0468V17.4931L2.43954 17.5136L3.30771 17.5341L3.43075 18.0126ZM33.2901 18.0468V18.5937H32.2989C31.752 18.5937 31.3077 18.5732 31.3077 18.5527C31.3077 18.5048 31.5059 17.7118 31.547 17.582C31.5675 17.5204 31.8067 17.4999 32.4356 17.4999H33.2901V18.0468ZM20.6642 24.1581C20.9991 24.2812 21.3751 24.5751 21.5392 24.8417C21.6075 24.9579 21.669 25.0741 21.669 25.1015C21.669 25.1357 19.7618 25.1562 17.4308 25.1562C15.0997 25.1562 13.1925 25.1357 13.1925 25.1015C13.1925 24.9784 13.4727 24.6093 13.6983 24.4384C14.1768 24.0761 14.2247 24.0693 17.4308 24.0693C19.7413 24.0693 20.4591 24.0898 20.6642 24.1581ZM21.8058 26.7968V27.3437H17.4308H13.0558V26.7968V26.2499H17.4308H21.8058V26.7968ZM21.8058 28.9843V29.5312H17.4308H13.0558V28.9843V28.4374H17.4308H21.8058V28.9843ZM32.0733 30.7753C32.0118 31.0282 31.4376 31.5409 31.13 31.6366C30.7198 31.7597 4.14169 31.7597 3.73153 31.6366C3.42392 31.5409 2.8497 31.0282 2.78817 30.7753L2.74716 30.6249H17.4308H32.1143L32.0733 30.7753ZM7.04013 33.3593V33.9062H5.3995H3.75888V33.3593V32.8124H5.3995H7.04013V33.3593ZM31.1026 33.3593V33.9062H29.462H27.8214V33.3593V32.8124H29.462H31.1026V33.3593Z" fill="white"/>
<path d="M9.16699 11.0605C9.03711 11.1221 8.87305 11.252 8.80469 11.3477C8.63379 11.5801 6.63086 17.2539 6.63086 17.5068C6.63086 17.6299 6.69922 17.7734 6.80176 17.876L6.96582 18.0469H17.4316H27.8975L28.0615 17.876C28.1641 17.7734 28.2324 17.6299 28.2324 17.5068C28.2324 17.2539 26.2295 11.5801 26.0586 11.3477C25.9902 11.252 25.8262 11.1221 25.6963 11.0605C25.4775 10.9443 24.9443 10.9375 17.4316 10.9375C9.91895 10.9375 9.38574 10.9443 9.16699 11.0605ZM26.0518 14.4717L26.9199 16.9189L22.1758 16.9395C19.5645 16.9463 15.2988 16.9463 12.6875 16.9395L7.94336 16.9189L8.81152 14.4717L9.67285 12.0312H17.4316H25.1904L26.0518 14.4717Z" fill="white"/>
<path d="M5.74258 22.4697C5.37344 22.6064 5.2709 23.0986 5.55801 23.3652C5.71523 23.5088 5.76308 23.5156 7.54726 23.5156C8.58633 23.5156 9.42715 23.4883 9.49551 23.4473C9.56387 23.4131 9.65957 23.29 9.70742 23.1738C9.8168 22.9141 9.70742 22.6133 9.46133 22.4971C9.28359 22.4219 5.94765 22.3945 5.74258 22.4697Z" fill="white"/>
<path d="M25.3822 22.5039C25.1908 22.5996 25.0677 22.9004 25.1292 23.1328C25.2181 23.502 25.2933 23.5156 27.3099 23.5156C29.1625 23.5156 29.1693 23.5156 29.3128 23.3584C29.5111 23.1465 29.5111 22.7637 29.3197 22.5859C29.1898 22.4629 29.0394 22.4561 27.3509 22.4424C26.1615 22.4355 25.4779 22.4561 25.3822 22.5039Z" fill="white"/>
<path d="M6.84931 24.1311C5.73505 24.2883 4.76434 24.8762 4.43622 25.6008C4.25165 26.0042 4.26532 26.5852 4.4704 26.9885C5.16766 28.3626 7.77216 28.8889 9.54266 28.0208C10.6569 27.4739 11.1149 26.4622 10.6706 25.5462C10.1784 24.5344 8.48309 23.9055 6.84931 24.1311ZM8.29169 25.259C8.87958 25.3821 9.41962 25.6692 9.61786 25.97C9.80243 26.2434 9.77509 26.3938 9.50848 26.6809C8.72235 27.5354 6.54169 27.5628 5.66669 26.7356C5.32489 26.4006 5.30438 26.1477 5.612 25.8401C6.17255 25.2795 7.27313 25.0403 8.29169 25.259Z" fill="white"/>
<path d="M26.5578 24.1376C24.2882 24.4863 23.2765 26.2568 24.6164 27.5419C25.8537 28.7245 28.6496 28.7382 29.9484 27.5693C30.5226 27.0497 30.7209 26.2363 30.4269 25.6005C30.1603 25.0195 29.3879 24.4589 28.547 24.2402C28.0548 24.1103 27.0636 24.0556 26.5578 24.1376ZM28.3078 25.3202C28.7521 25.457 29.005 25.5937 29.2511 25.8398C29.5588 26.1474 29.5382 26.4072 29.1964 26.7353C28.3214 27.5624 26.1408 27.5351 25.3547 26.6806C25.0881 26.3935 25.0607 26.2431 25.2453 25.9697C25.6896 25.3066 27.2004 24.9853 28.3078 25.3202Z" fill="white"/>
</g>
<defs>
<clipPath id="clip0_2213_59312">
<rect width="35" height="35" fill="white"/>
</clipPath>
</defs>
</svg>
