<svg xmlns="http://www.w3.org/2000/svg" width="29" height="28" viewBox="0 0 29 28" fill="none">
<path d="M5.54167 15.1667H12.5417C12.8511 15.1667 13.1478 15.0437 13.3666 14.825C13.5854 14.6062 13.7083 14.3094 13.7083 14V4.66667C13.7083 4.35725 13.5854 4.0605 13.3666 3.84171C13.1478 3.62292 12.8511 3.5 12.5417 3.5H5.54167C5.23225 3.5 4.9355 3.62292 4.71671 3.84171C4.49792 4.0605 4.375 4.35725 4.375 4.66667V14C4.375 14.3094 4.49792 14.6062 4.71671 14.825C4.9355 15.0437 5.23225 15.1667 5.54167 15.1667ZM4.375 23.3333C4.375 23.6428 4.49792 23.9395 4.71671 24.1583C4.9355 24.3771 5.23225 24.5 5.54167 24.5H12.5417C12.8511 24.5 13.1478 24.3771 13.3666 24.1583C13.5854 23.9395 13.7083 23.6428 13.7083 23.3333V18.6667C13.7083 18.3572 13.5854 18.0605 13.3666 17.8417C13.1478 17.6229 12.8511 17.5 12.5417 17.5H5.54167C5.23225 17.5 4.9355 17.6229 4.71671 17.8417C4.49792 18.0605 4.375 18.3572 4.375 18.6667V23.3333ZM16.0417 23.3333C16.0417 23.6428 16.1646 23.9395 16.3834 24.1583C16.6022 24.3771 16.8989 24.5 17.2083 24.5H24.2083C24.5178 24.5 24.8145 24.3771 25.0333 24.1583C25.2521 23.9395 25.375 23.6428 25.375 23.3333V15.1667C25.375 14.8572 25.2521 14.5605 25.0333 14.3417C24.8145 14.1229 24.5178 14 24.2083 14H17.2083C16.8989 14 16.6022 14.1229 16.3834 14.3417C16.1646 14.5605 16.0417 14.8572 16.0417 15.1667V23.3333ZM17.2083 11.6667H24.2083C24.5178 11.6667 24.8145 11.5437 25.0333 11.325C25.2521 11.1062 25.375 10.8094 25.375 10.5V4.66667C25.375 4.35725 25.2521 4.0605 25.0333 3.84171C24.8145 3.62292 24.5178 3.5 24.2083 3.5H17.2083C16.8989 3.5 16.6022 3.62292 16.3834 3.84171C16.1646 4.0605 16.0417 4.35725 16.0417 4.66667V10.5C16.0417 10.8094 16.1646 11.1062 16.3834 11.325C16.6022 11.5437 16.8989 11.6667 17.2083 11.6667Z" fill="#737373"/>
</svg>