<svg xmlns="http://www.w3.org/2000/svg" width="29" height="28" viewBox="0 0 29 28" fill="none">
<path d="M5.54036 21H7.8737V25.7612L13.8249 21H19.5404C20.8272 21 21.8737 19.9535 21.8737 18.6667V9.33333C21.8737 8.0465 20.8272 7 19.5404 7H5.54036C4.25353 7 3.20703 8.0465 3.20703 9.33333V18.6667C3.20703 19.9535 4.25353 21 5.54036 21Z" fill="#737373"/>
<path d="M24.2083 2.3335H10.2083C8.9215 2.3335 7.875 3.38 7.875 4.66683H21.875C23.1618 4.66683 24.2083 5.71333 24.2083 7.00016V16.3335C25.4952 16.3335 26.5417 15.287 26.5417 14.0002V4.66683C26.5417 3.38 25.4952 2.3335 24.2083 2.3335Z" fill="#737373"/>
</svg>