<svg xmlns="http://www.w3.org/2000/svg" width="29" height="28" viewBox="0 0 29 28" fill="none">
<path d="M6.23623 24.2375C6.19626 24.4086 6.19554 24.5866 6.23413 24.758C6.27271 24.9295 6.34961 25.0899 6.45904 25.2274C6.56847 25.3649 6.70761 25.4759 6.86602 25.5519C7.02443 25.628 7.198 25.6672 7.37373 25.6667C7.60418 25.6667 7.82949 25.5985 8.02123 25.4707L14.3737 21.2357L20.7262 25.4707C20.925 25.6026 21.1593 25.6706 21.3978 25.6653C21.6363 25.6601 21.8674 25.582 22.0602 25.4414C22.2529 25.3009 22.398 25.1047 22.476 24.8793C22.5539 24.6538 22.5609 24.4099 22.4961 24.1803L20.3622 16.7137L25.6542 11.9514C25.8237 11.7987 25.9448 11.5998 26.0024 11.3791C26.06 11.1584 26.0517 10.9257 25.9784 10.7097C25.9052 10.4937 25.7703 10.3039 25.5903 10.1638C25.4103 10.0237 25.1933 9.9394 24.9659 9.92135L18.3147 9.39168L15.4366 3.02052C15.3449 2.81531 15.1958 2.64103 15.0073 2.51868C14.8188 2.39634 14.5989 2.33118 14.3741 2.33105C14.1494 2.33093 13.9294 2.39585 13.7407 2.51799C13.5521 2.64012 13.4028 2.81425 13.3109 3.01935L10.4327 9.39168L3.78156 9.92018C3.55809 9.93789 3.34446 10.0196 3.16621 10.1555C2.98796 10.2915 2.85265 10.4759 2.77647 10.6867C2.70029 10.8975 2.68646 11.1259 2.73663 11.3443C2.78681 11.5628 2.89886 11.7622 3.0594 11.9187L7.97573 16.7102L6.23623 24.2375ZM14.3737 6.33385L16.7561 11.6083L17.4421 11.6632H17.4432L22.0772 12.0307L18.2611 15.4653L18.2599 15.4677L17.7197 15.953L17.9192 16.6495V16.653L19.3811 21.7689L14.3737 18.431V6.33385Z" fill="#737373"/>
</svg>