<svg xmlns="http://www.w3.org/2000/svg" width="29" height="28" viewBox="0 0 29 28" fill="none">
<path d="M2.85927 17.8163L5.1926 21.853C5.34751 22.1208 5.60242 22.316 5.90127 22.3959C6.20012 22.4757 6.51845 22.4336 6.78627 22.2788L8.41494 21.3385C9.0916 21.8717 9.83944 22.3092 10.6258 22.6358V24.5002C10.6258 24.8096 10.7487 25.1063 10.9675 25.3251C11.1863 25.5439 11.483 25.6668 11.7924 25.6668H16.4591C16.7685 25.6668 17.0653 25.5439 17.2841 25.3251C17.5029 25.1063 17.6258 24.8096 17.6258 24.5002V22.6358C18.4183 22.3059 19.1621 21.8694 19.8366 21.3385L21.4653 22.2788C22.0218 22.5997 22.7381 22.4072 23.0589 21.853L25.3923 17.8163C25.5458 17.5482 25.5872 17.2303 25.5075 16.9318C25.4277 16.6333 25.2332 16.3784 24.9664 16.2227L23.3658 15.2975C23.4908 14.4371 23.4901 13.563 23.3634 12.7028L24.9641 11.7777C25.5194 11.4568 25.7119 10.7393 25.3899 10.184L23.0566 6.14733C22.9017 5.87958 22.6468 5.6843 22.3479 5.60445C22.0491 5.5246 21.7308 5.5667 21.4629 5.7215L19.8343 6.66183C19.1606 6.13027 18.4171 5.69375 17.6246 5.3645V3.50016C17.6246 3.19074 17.5017 2.894 17.2829 2.6752C17.0641 2.45641 16.7674 2.3335 16.4579 2.3335H11.7913C11.4819 2.3335 11.1851 2.45641 10.9663 2.6752C10.7475 2.894 10.6246 3.19074 10.6246 3.50016V5.3645C9.83212 5.69444 9.08832 6.13091 8.41377 6.66183L6.78627 5.7215C6.6537 5.64469 6.50729 5.59478 6.35541 5.57462C6.20353 5.55445 6.04916 5.56443 5.90114 5.60398C5.75313 5.64353 5.61436 5.71188 5.49278 5.80511C5.3712 5.89835 5.2692 6.01464 5.1926 6.14733L2.85927 10.184C2.70572 10.4521 2.66432 10.77 2.74408 11.0685C2.82383 11.367 3.01829 11.6219 3.2851 11.7777L4.88577 12.7028C4.75993 13.5631 4.75993 14.4372 4.88577 15.2975L3.2851 16.2227C2.72977 16.5435 2.53727 17.261 2.85927 17.8163ZM14.1246 9.3335C16.6983 9.3335 18.7913 11.4265 18.7913 14.0002C18.7913 16.5738 16.6983 18.6668 14.1246 18.6668C11.5509 18.6668 9.45794 16.5738 9.45794 14.0002C9.45794 11.4265 11.5509 9.3335 14.1246 9.3335Z" fill="#737373"/>
</svg>