<svg width="33" height="35" viewBox="0 0 33 35" fill="none" xmlns="http://www.w3.org/2000/svg">
<path d="M2.39258 0.0771484C1.61328 0.371094 1.09375 0.829102 0.745117 1.54004L0.519531 1.99805V4.09668V6.20215L0.745117 6.4209L0.963867 6.64648L2.94629 6.66699L4.92871 6.6875V8.86816V11.042L3.97852 11.0693C2.91211 11.0898 2.75488 11.1514 2.52246 11.6094C2.34473 11.9512 2.34473 14.125 2.52246 14.4668C2.75488 14.9248 2.91211 14.9863 3.97852 15.0068L4.92871 15.0342V20.1406V25.2539L5.08594 25.3975C5.28418 25.582 5.6123 25.5889 5.82422 25.418L5.98828 25.2881L6.00879 20.1543L6.02246 15.0205H8.82519H11.6279V15.6152C11.6279 16.1006 11.6553 16.2646 11.7646 16.4424C11.9971 16.8184 12.6055 16.9824 13.002 16.7705C13.1045 16.7227 14.0479 16.0117 15.1006 15.1914C16.4609 14.1387 17.0488 13.6396 17.124 13.4824C17.2676 13.1885 17.2607 12.8467 17.1103 12.5801C16.9941 12.3545 13.248 9.3877 12.9404 9.27148C12.5303 9.11426 11.9766 9.29199 11.7578 9.64746C11.6553 9.81152 11.6279 9.99609 11.6279 10.4541V11.0557H8.82519H6.02246V6.7832C6.02246 2.24414 6.00879 2.06641 5.6875 1.45117C5.5918 1.25977 5.50293 1.08887 5.48926 1.05469C5.47559 1.02734 10.1172 1.01367 15.8115 1.02051C25.1904 1.04102 26.1748 1.05469 26.4004 1.15039C26.7695 1.32129 27.1182 1.65625 27.2959 2.01855C27.4463 2.32617 27.4531 2.42188 27.4736 4.12402L27.501 5.9082L27.1455 5.95605C26.2637 6.07227 25.2656 6.57812 24.5342 7.28223C23.4473 8.32812 22.9072 9.70215 22.9961 11.1924C23.1328 13.4482 24.6709 15.2666 26.8721 15.793L27.4873 15.9434V17.9395V19.9424H26.0723C24.5478 19.9492 24.4795 19.9629 24.3496 20.3047C24.2539 20.5508 24.3701 20.8584 24.5889 20.9609C24.7051 21.0088 25.5664 21.0361 27.3848 21.0361H30.0166V21.9248V22.8135H25.6006C22.8525 22.8135 21.1436 22.8408 21.0615 22.8818C20.877 22.9775 20.7881 23.3193 20.7881 23.9141C20.7881 24.2148 20.7744 24.4541 20.7539 24.4541C20.6992 24.4541 17.541 21.9932 17.5205 21.9316C17.5068 21.8838 20.6719 19.3955 20.7539 19.3955C20.7744 19.3955 20.7881 19.6416 20.7881 19.9355C20.7881 20.5166 20.8633 20.8037 21.0478 20.9404C21.1299 21.002 21.4238 21.0293 21.9912 21.0361C22.9961 21.0361 23.1465 20.9678 23.1465 20.4893C23.1465 20.0723 22.9619 19.9424 22.3535 19.9424H21.8818V19.3408C21.8818 18.8623 21.8545 18.6982 21.7451 18.5205C21.499 18.124 20.8906 17.9805 20.4668 18.2129C20.3506 18.2812 19.4072 18.9922 18.375 19.7988C17.042 20.8242 16.4609 21.3232 16.3857 21.4805C16.2422 21.7744 16.249 22.1162 16.3994 22.3828C16.5156 22.6084 20.2617 25.5684 20.5693 25.6914C20.9795 25.8486 21.5332 25.6709 21.752 25.3154C21.8545 25.1514 21.8818 24.9668 21.8818 24.502V23.9072H24.6846H27.4873V26.0947V28.2822H18.7236C10.0488 28.2822 9.95312 28.2822 9.72754 28.4189C9.33105 28.6582 9.30371 28.8291 9.30371 30.791C9.29687 32.0488 9.26953 32.623 9.20801 32.8008C9.06445 33.1973 8.77051 33.5322 8.37402 33.7236C7.62207 34.0928 6.70605 33.8262 6.26172 33.1084L6.05664 32.7734L6.02246 29.8682L5.98828 26.9697L5.82422 26.8398C5.59863 26.6553 5.26367 26.6689 5.07227 26.874L4.92187 27.0312L4.94238 29.998L4.96289 32.9648L5.18164 33.4229C5.44824 33.9834 5.87207 34.4209 6.44629 34.7217L6.87695 34.9473H18.9424H31.0078L31.418 34.749C31.9443 34.4893 32.4639 33.9697 32.7236 33.4434L32.9219 33.0332L32.9424 30.9824C32.9629 29.1572 32.9561 28.9111 32.8467 28.7129C32.6348 28.3096 32.4912 28.2822 30.4336 28.2822H28.5811V26.1016V23.9209L29.5312 23.8936C30.5977 23.873 30.7549 23.8115 30.9873 23.3535C31.165 23.0117 31.165 20.8379 30.9873 20.4961C30.7549 20.0381 30.5977 19.9766 29.5312 19.9561L28.5811 19.9287V17.9326V15.9297L29.1689 15.7861C30.9736 15.3418 32.3818 13.9814 32.8672 12.2178C33.0586 11.5205 33.0381 10.1465 32.833 9.4834C32.6553 8.93652 32.3887 8.3623 32.2178 8.16406C32.0674 7.99316 31.582 8.00684 31.418 8.18457C31.2402 8.38281 31.2607 8.63574 31.5068 9.14844C32.0674 10.3242 32.0674 11.459 31.5068 12.6211C30.8711 13.9473 29.4902 14.8154 28 14.8154C25.5732 14.8154 23.707 12.5801 24.1445 10.1943C24.4248 8.66992 25.71 7.37793 27.2822 7.0498C28.0889 6.87891 28.8408 6.99512 29.8594 7.43945C30.1602 7.56934 30.2353 7.58301 30.4131 7.50781C30.6182 7.42578 30.7686 7.18652 30.7686 6.96094C30.7686 6.60547 29.9824 6.16113 29.0391 5.99023L28.5811 5.9082V4.3291C28.5811 2.59277 28.5195 2.0459 28.2734 1.49902C28.0547 1.02734 27.4531 0.432617 26.9609 0.200195L26.5645 0.015625L14.6016 0.00195312C4.86035 -0.00488281 2.59082 0.00878906 2.39258 0.0771484ZM4.07422 1.28027C4.42969 1.49902 4.70996 1.86133 4.82617 2.25098C4.90137 2.52441 4.92871 2.94824 4.92871 4.09668V5.58691H3.25391H1.5791V4.02832C1.5791 2.79102 1.59961 2.40137 1.68848 2.15527C1.80469 1.81348 2.14648 1.41016 2.47461 1.23926C2.95996 0.993164 3.63672 1.01367 4.07422 1.28027ZM14.3828 11.7461C15.2578 12.4229 15.9756 13.0039 15.9893 13.0312C16.0029 13.0791 12.8379 15.5674 12.7559 15.5674C12.7354 15.5674 12.7217 15.3213 12.7217 15.0273C12.7217 14.4463 12.6465 14.1592 12.4619 14.0225C12.3662 13.9473 11.4434 13.9336 7.92285 13.9268H3.49316V13.0381V12.1494H7.90918C10.6572 12.1494 12.3662 12.1221 12.4482 12.0811C12.6328 11.9854 12.7217 11.6436 12.7217 11.0488C12.7217 10.748 12.7354 10.5088 12.7627 10.5088C12.7832 10.5088 13.5078 11.0625 14.3828 11.7461ZM31.8486 31.0713L31.8281 32.7734L31.623 33.1084C31.3564 33.5322 30.8506 33.8535 30.3447 33.9082C30.1465 33.9355 25.457 33.9561 19.9268 33.9561H9.87793L10.1172 33.4639L10.3633 32.9717L10.3838 31.1738L10.4043 29.376H21.1367H31.8691L31.8486 31.0713Z" fill="white"/>
<path d="M8.20215 3.61133C8.01758 3.67969 7.86719 3.92578 7.86719 4.14453C7.86719 4.21289 7.92871 4.34961 8.01074 4.45215L8.14746 4.62988H14.0195H19.8916L20.0283 4.45215C20.2744 4.14453 20.165 3.73438 19.8096 3.60449C19.543 3.51563 8.45508 3.51563 8.20215 3.61133Z" fill="white"/>
<path d="M8.23633 6.88574C8.04492 6.96094 7.86719 7.21387 7.86719 7.40527C7.86719 7.4873 7.92871 7.63086 8.01074 7.7334L8.14746 7.91113H14.0195H19.8916L20.0283 7.7334C20.2197 7.49414 20.2061 7.27539 20.0078 7.04297L19.8438 6.85156L14.1084 6.83789C10.957 6.83105 8.31152 6.85156 8.23633 6.88574Z" fill="white"/>
<path d="M27.625 7.70619C27.4951 7.83607 27.4883 7.93178 27.4883 9.51088V11.1857L27.6729 11.3292C27.8506 11.466 27.9258 11.4728 28.9443 11.4523C29.9902 11.4318 30.0381 11.4249 30.1611 11.2677C30.3389 11.049 30.3252 10.7413 30.1201 10.5431C29.9697 10.3859 29.9082 10.3722 29.2725 10.3722H28.5957L28.5684 9.11439C28.5479 7.9933 28.5342 7.84291 28.418 7.71303C28.2402 7.52162 27.8164 7.51478 27.625 7.70619Z" fill="white"/>
<path d="M8.03979 18.2676C7.83472 18.4658 7.82104 18.7734 7.99878 18.9922L8.12866 19.1562H11.2869H14.4451L14.575 18.9922C14.7527 18.7734 14.739 18.4658 14.5339 18.2676L14.3699 18.0967H11.2869H8.20386L8.03979 18.2676Z" fill="white"/>
<path d="M8.03809 21.5488C7.92871 21.6514 7.86719 21.7949 7.86719 21.9248C7.86719 22.0547 7.92871 22.1982 8.03809 22.3008L8.20215 22.4717H11.2852H14.3682L14.5322 22.3008C14.7578 22.082 14.7578 21.7676 14.5322 21.5488L14.3682 21.3779H11.2852H8.20215L8.03809 21.5488Z" fill="white"/>
<path d="M8.03809 24.8301C7.92871 24.9326 7.86719 25.0762 7.86719 25.2061C7.86719 25.3359 7.92871 25.4795 8.03809 25.582L8.20215 25.7529H12.3105H16.4189L16.583 25.582C16.6924 25.4795 16.7539 25.3359 16.7539 25.2061C16.7539 25.0762 16.6924 24.9326 16.583 24.8301L16.4189 24.6592H12.3105H8.20215L8.03809 24.8301Z" fill="white"/>
</svg>
